<svg xmlns="http://www.w3.org/2000/svg" xml:space="preserve" width="128" height="128" data-id="lg_0Gh9Y1ex49Q0SSfi74" data-version="1" viewBox="0 0 128 128"><g data-padding="20"><path fill="#3b169e" d="M109.604 61.582a13.68 13.68 0 0 0-15.799-11.006 13.6 13.6 0 0 0-3.477 1.179l-9.524-12.578a13.53 13.53 0 0 0-12.67-22.194 13.606 13.606 0 0 0-10.99 15.693L43.69 37.363a13.61 13.61 0 0 0-14.21-6.652 13.576 13.576 0 0 0 .271 26.804l.333 15.904a13.455 13.455 0 0 0-9.464 15.345 13.576 13.576 0 0 0 25.67 3.386l13.108 3.961a13.6 13.6 0 0 0 .075 3.855 13.606 13.606 0 1 0 22.738-12.23l8.073-11.566a13.455 13.455 0 0 0 17.083-4.444 13.6 13.6 0 0 0 2.222-10.16m-25.292-4.051-10.144-2.963-.303-11.082q1.739-.438 3.236-1.27l9.358 12.337a13.6 13.6 0 0 0-2.147 2.978m-14.18 26.759c-1.225.242-2.374.695-3.448 1.24L51.021 65.058l6.803-10.265 11.641 3.401Zm-35.271-11.46-.302-15.42a13.6 13.6 0 0 0 3.583-1.3l7 9.146-5.746 8.648a13.6 13.6 0 0 0-4.535-1.059m7.075-19.653q.605-.605 1.119-1.3.363-.575.65-1.18l9.313 2.692-5.065 7.634Zm18.656-2.57 5.019-7.56q1.648.606 3.477.802l.242 9.313Zm8.39-28.906q.802-.15 1.573-.15a8.799 8.799 0 0 1 1.542 17.49 8.814 8.814 0 0 1-3.115-17.34m-7.453 18.822-5.76 8.693-10.492-3.054q.363-2.116 0-4.293l13.5-4.687q1.104 1.905 2.752 3.341m-38.309 5.14a8.824 8.824 0 0 1 17.37-3.114 8.814 8.814 0 0 1-17.355 3.084m18.036 45.732a8.814 8.814 0 1 1-14.8-9.576 8.814 8.814 0 0 1 14.8 9.576m6.274-3.885q.166-1.754-.12-3.538a13.6 13.6 0 0 0-4.007-7.408l4.807-7.287 14.665 19.17a13.6 13.6 0 0 0-2.117 3.069Zm32.58 15.088a8.81 8.81 0 1 1-14.484-10.039 8.81 8.81 0 0 1 14.483 10.039m-1.874-17.492q-1.573-.695-3.311-.952l-.635-24.537 8.526 2.48a13.6 13.6 0 0 0 0 4.278 13.6 13.6 0 0 0 3.614 6.984Zm25.217-16.116a8.829 8.829 0 1 1-7.257-13.833 8.799 8.799 0 0 1 7.257 13.833"/><path fill="transparent" stroke="transparent" stroke-width=".412" d="M14.148 12.5h99.704v103H14.148z"/></g></svg>